<?xml version="1.0" encoding="UTF-8"?>
<!DOCTYPE svg PUBLIC "-//W3C//DTD SVG 1.1//EN" "http://www.w3.org/Graphics/SVG/1.1/DTD/svg11.dtd">
<!-- Creator: CorelDRAW 2017 -->
<svg xmlns="http://www.w3.org/2000/svg" xml:space="preserve" width="66.1458mm" height="66.1458mm" version="1.1" style="shape-rendering:geometricPrecision; text-rendering:geometricPrecision; image-rendering:optimizeQuality; fill-rule:evenodd; clip-rule:evenodd"
viewBox="0 0 6614.58 6614.58"
 xmlns:xlink="http://www.w3.org/1999/xlink">
 <defs>
  <style type="text/css">
   <![CDATA[
    .fil0 {fill:black}
   ]]>
  </style>
 </defs>
 <g id="Слой_x0020_1">
  <metadata id="CorelCorpID_0Corel-Layer"/>
  <path  d="M689.2 3280.17c0,229.56 25.52,464.06 74.72,660.52 101.17,403.98 289.82,772.57 551.03,1094.14 198.83,244.76 452.02,439.39 723.65,596.06 212.37,122.48 468.44,225.01 708.93,279.31 546.39,123.36 1210.24,81.65 1699.54,-137.04 144.9,-64.76 280.56,-133.74 411.81,-220.91l135.92 -99.09c59.13,-44.45 113.53,-96.92 169.58,-143.78 15.48,-12.94 27.9,-27.41 42.45,-41.91 104.47,-104.16 200.07,-223.29 281.1,-345.62 275.9,-416.47 437.44,-954.29 437.44,-1460.88l0 -5.42c-0.07,-113.91 -2.4,-233.68 -12.59,-343.59l-21.54 -147.2c-2.64,-21.67 3.41,-40.17 -20.1,-40.17l-2512.64 0 0 922.09 1512.4 0c0,126.29 -105.49,357.14 -181.88,468.96l-220.32 267.8 -88.32 80.4c-167.73,131.08 -344.45,210.1 -549.75,269.78 -43.94,12.77 -86.46,21.08 -133.83,28.86 -242.8,39.9 -486.67,38.22 -726.39,-16.49l-157.72 -47.15c-175.08,-67.75 -315.32,-147.55 -463.84,-259.28 -10.17,-7.66 -19.12,-13.57 -27.67,-20.53 -11.52,-9.38 -16.74,-16.61 -28.31,-25.93 -180.21,-145.12 -346.36,-379.89 -440.91,-595.59 -62.03,-141.48 -121.43,-323.21 -132.19,-488.53 -11.01,-168.96 -17.81,-302.76 9.19,-472.53 26.16,-164.4 69.04,-318.43 141.22,-461.43 115.27,-228.36 267.24,-427.59 465.37,-589.2 84.28,-68.75 175.77,-129.31 273.78,-178.17 316.18,-157.62 637.83,-217.1 1001.94,-166.43 215.94,30.05 389.89,90 555.83,197.39 60.22,38.97 121.68,78.38 175.11,126.19l82.8 67.85c51.87,-34.74 92.35,-85.23 136.96,-128.19l135.69 -129.47c19.05,-19.23 28.92,-25.26 48.17,-42.21 47.68,-42 83.57,-88.69 133.66,-131.55 14.76,-12.62 10.62,-10.4 21.37,-20.75 8.53,-8.19 16.35,-13.26 25.87,-22.34 44.68,-42.57 88.69,-97.26 136.1,-135.08 30.41,-24.27 70.33,-58.22 91.28,-89.51l-122.03 -106.96c-14.83,-13.87 -27.39,-21.12 -44.15,-34.19 -179.04,-139.72 -366.12,-261.98 -577.47,-350.53 -581.99,-243.83 -1277.24,-276.02 -1891.78,-71.07 -326.83,109 -648.35,280.23 -906.17,509.92l-132.46 120.63c-14.52,14.53 -24.58,24.7 -39.2,39.15 -78.3,77.42 -207,235.38 -263.61,320.93 -55.02,83.17 -110.92,168.31 -158.62,257.18 -11.34,21.13 -18.81,31.23 -30.18,54.19 -19.09,38.57 -39.29,73.37 -55.68,113.06 -74.95,181.51 -122.06,302.21 -171.26,497.66 -42.09,167.24 -72.3,388.97 -72.3,596.65z"/>
 </g>
</svg>
