<?xml version="1.0" encoding="UTF-8"?>
<!DOCTYPE svg PUBLIC "-//W3C//DTD SVG 1.1//EN" "http://www.w3.org/Graphics/SVG/1.1/DTD/svg11.dtd">
<!-- Creator: CorelDRAW 2017 -->
<svg xmlns="http://www.w3.org/2000/svg" xml:space="preserve" width="66.1458mm" height="66.1458mm" version="1.1" style="shape-rendering:geometricPrecision; text-rendering:geometricPrecision; image-rendering:optimizeQuality; fill-rule:evenodd; clip-rule:evenodd"
viewBox="0 0 6614.58 6614.58"
 xmlns:xlink="http://www.w3.org/1999/xlink">
 <defs>
  <style type="text/css">
   <![CDATA[
    .fil0 {fill:white}
   ]]>
  </style>
 </defs>
 <g id="Слой_x0020_1">
  <metadata id="CorelCorpID_0Corel-Layer"/>
  <g id="_1969422385760">
   <path  d="M961.96 3313.91c0,-621.84 242.55,-1227.36 664.62,-1648.7 5.42,-5.41 4.44,-3.95 10.32,-9.51l22.71 -23.55c3.55,-3.55 6.8,-6.36 10.29,-9.54l56.63 -55.71c16.35,-15.75 23.85,-17.91 39.83,-32.87 101.32,-94.87 301.48,-232.1 426.63,-293.66 184.39,-90.7 285.91,-144.14 518.37,-201.88 603.67,-149.95 1264.76,-70.85 1796.24,248.02l172.61 111.54c27.57,18.71 53.26,38.6 79,59.77 93.19,76.62 141.58,116.28 231.11,205.05l133.81 150.37c146.98,188.7 200.57,273.05 303.76,482.71 76.66,155.74 123.86,305.81 165.34,475.8 91.49,374.89 75.77,812.7 -30.25,1186.26 -55.41,195.23 -118.28,341.93 -216.31,517.34 -92.52,165.55 -275.69,413.11 -418.83,532.84 -35.49,29.69 -52.59,55.82 -114.22,103.87l-165.23 125.53c-54.81,38.95 -119.67,78.1 -178.63,112.12l-198.01 99.36c-194.19,86.84 -462.11,166.32 -688.14,190.65l-276.37 21.46c-31.73,0.56 -37.8,-5.63 -65.99,-7.12 -23.86,-1.26 -48,1.71 -71.74,-0.94 -361.21,-40.2 -480.33,-63.47 -821.13,-203.01 -191.8,-78.53 -381.67,-206.19 -542.87,-336.01l-145.9 -131.66c-105.78,-106.09 -188.67,-196.71 -276.08,-325.32 -275.17,-404.83 -421.57,-843.4 -421.57,-1343.21zm2282.74 -2954.98l124.2 0c196.03,4.35 395.45,29.45 601.67,76.69 483.61,110.77 839.06,300.32 1215.85,594.72l96.22 82.21c19.13,14.61 30.12,26.71 47.89,44.63 9.16,9.24 13.84,14.22 23.29,22.97l20.72 18.93c95.24,87.17 178.02,189.33 259.78,288.75 80.3,97.63 154.02,214.51 219.37,322.57 57.91,95.75 78.44,147.49 122.64,234.25l106.6 256.93c14.81,44.81 31.77,91.83 46.19,138.87 75,244.73 116.63,508.75 124.69,774.2l0 191.33c-6.49,212.66 -34.63,423.47 -84.56,623.21 -25.19,100.81 -50.51,182.66 -81.44,275.41 -14.92,44.75 -30.4,84.59 -49.23,129.3l-82.07 188.92c-9.42,20.32 -22.17,37.43 -33.08,59.45 -98.55,198.82 -281.75,467.54 -441.01,629.64 -9.44,9.61 -13.69,14.82 -22.2,24.06 -71.87,78.05 -94.44,92.22 -159.4,157.82 -62.46,63.09 -225.06,186.18 -298.35,236.93 -108.52,75.15 -215.39,141.56 -334.24,201.02 -123.19,61.63 -248.12,118.28 -378.98,162.85 -362.62,123.52 -655.69,161.07 -1041.42,161.07 -354.03,0 -733.72,-83.56 -1056.11,-212.49 -317.45,-126.94 -633.34,-323.32 -884.65,-555.92 -103.93,-96.19 -173.91,-176.53 -264.13,-277.78 -48.31,-54.21 -112.95,-144.8 -157.47,-206.02 -54.01,-74.25 -160.3,-252.02 -203.22,-338.74 -21.52,-43.49 -37.64,-77.21 -57.34,-121.1 -190.79,-425.02 -264.15,-811.89 -264.15,-1295.81 0,-332.38 68.19,-635.93 164.28,-926.38l104.3 -259.22c231.44,-482.46 503.84,-804.77 922.51,-1127.21 10.82,-8.34 12.96,-10.81 25.68,-19.52l275.03 -174.4c79.88,-48.41 288.48,-145.25 372.23,-176.22 344,-127.19 677.82,-198.2 1019.91,-205.92z"/>
   <path  d="M2203.99 3565.11c0,93.52 55.89,151.31 116.77,187.25 35.36,20.88 61.3,34.04 99.05,52.94l413.97 193.95c37.26,17.28 76.63,30.69 110.14,48.44 -44.72,66.83 -185.37,235.03 -244.44,310.71 -85.59,109.65 -260.59,323.6 -329.14,424.26 -155.51,228.33 73.55,369.02 177.19,369.02 90.35,0 139.29,-35.94 190.07,-87.46l128.75 -148.83c16.82,-18.9 25.39,-30.82 42.88,-49.64l89.32 -102.33c18.01,-18.56 23.6,-30.3 42.85,-49.67 33.33,-33.53 254.63,-285.06 259.28,-302.47l13.21 0c4.7,17.62 257.85,309.85 292.39,348.66 62.43,70.16 256.48,311.32 298.18,342.87 16.55,12.51 38.8,25.15 59.33,33.18 147.59,57.76 314.66,-67.29 314.66,-182.63 0,-139.06 -41.2,-171.49 -125.53,-284.26 -52.93,-70.8 -106.79,-136.49 -162.37,-207.72 -14.35,-18.39 -23.52,-31.52 -36.73,-49.19 -62.84,-84.03 -238.31,-297.46 -283.18,-364.5l209.25 -94.72c95.16,-44.12 340.96,-159.37 408.05,-199.86 72.04,-43.48 122.64,-93.24 122.64,-194.61 0,-125.29 -92.83,-237.98 -231.23,-237.98 -92.46,0 -257.67,102.71 -386.94,154.89 -65.37,26.39 -138.82,46.59 -209.22,61.69 -325.04,69.67 -552.46,4.66 -828.96,-106.1 -37.28,-14.93 -65.67,-28.57 -103.44,-41.93 -68.56,-24.25 -163.4,-68.55 -228.79,-68.55 -127.1,0 -218.01,115.64 -218.01,244.59z"/>
   <path  d="M2864.64 2328.92c0,-59.02 22.03,-131.54 38.58,-172.95 56.3,-140.91 220.76,-263.36 384.24,-263.36 146.34,0 245.42,40.24 337.25,131.89 311,310.39 -16.35,821.7 -403.54,727.73 -84.95,-20.62 -156.48,-60.66 -216.15,-120.86 -77.34,-78.04 -140.38,-181.11 -140.38,-302.45zm-409.6 -39.67c0,277.39 90.07,483.87 246.09,639.59 532.51,531.48 1458.4,180.62 1458.4,-619.76 0,-266.46 -113.54,-474.06 -299,-639.53 -314.06,-280.22 -837.27,-269.53 -1152.79,46.22 -145.24,145.35 -252.7,345.51 -252.7,573.48z"/>
  </g>
 </g>
</svg>
