<?xml version="1.0" encoding="UTF-8"?>
<!DOCTYPE svg PUBLIC "-//W3C//DTD SVG 1.1//EN" "http://www.w3.org/Graphics/SVG/1.1/DTD/svg11.dtd">
<!-- Creator: CorelDRAW 2017 -->
<svg xmlns="http://www.w3.org/2000/svg" xml:space="preserve" width="66.1458mm" height="66.1458mm" version="1.1" style="shape-rendering:geometricPrecision; text-rendering:geometricPrecision; image-rendering:optimizeQuality; fill-rule:evenodd; clip-rule:evenodd"
viewBox="0 0 6614.58 6614.58"
 xmlns:xlink="http://www.w3.org/1999/xlink">
 <defs>
  <style type="text/css">
   <![CDATA[
    .fil0 {fill:white}
   ]]>
  </style>
 </defs>
 <g id="Слой_x0020_1">
  <metadata id="CorelCorpID_0Corel-Layer"/>
  <path  d="M2330.87 1881.78c0,28.63 15.66,36.17 38.5,47.28 76.74,37.33 278.26,39.18 284.55,305.84l19.35 318.74c6.04,53.83 -5.14,110.83 2.86,163.61 17.35,114.36 -1.72,289.11 -35.55,392.62 -20.74,63.47 -33.15,146.85 -106.06,155.95 -30.66,3.84 -69.08,-14.44 -92.74,-31.59l-71.88 -59.32c-56.07,-56.34 -101.31,-120.93 -148.66,-184.38l-182.82 -276.38c-67.33,-111.76 -127.24,-223.51 -186.93,-342.9l-165.05 -359.75c-115.47,-267.8 -304.79,-200.37 -581.78,-200.37 -82.96,0 -464.33,4.4 -519.39,10.46 -65.93,7.25 -151.74,34.95 -151.74,115.7 0,76.19 17.19,108.5 45.35,171.63l116.05 252.31c60.59,123.03 117.91,250.08 183.39,371.68 86.27,160.19 168.56,322.95 262.95,478.83 80.09,132.26 155.83,269.07 244.36,396.49 13.84,19.94 23.39,37.5 38.15,57.73l113.16 164.37c13.95,18.81 26.83,36.22 40.13,55.74 51.39,75.41 156.95,216.38 221.71,282.9 10.31,10.59 12.97,12.73 21.51,23.91l89.57 97.14c31.52,31.52 59.28,59.27 90.75,90.9 45.96,46.19 98.6,87.08 149.24,128.3 18.76,15.27 35.75,26.96 54.65,41.23 34.22,25.82 74.32,54.53 110.54,76.16 116.72,69.7 235.55,138.77 363.81,186.22 45.88,16.97 90.36,33.67 138.75,47.95 172.19,50.86 400.99,89.77 620.26,94.06l79.17 0c56.21,-1.15 111.23,-4.85 163.89,-11.47 63.87,-8.03 121.52,-23.64 159.26,-62.77 75.14,-77.9 62.71,-226.67 84.23,-354.78 14.93,-88.89 62.78,-253.83 132.48,-306.53 52.74,-39.88 114.32,-25.21 165.21,4.01 56.9,32.66 220.72,196.3 256,238.51l106.26 115.77c137.5,148.42 259.62,301.97 470.43,357.13 122.68,32.1 277.59,15.09 418.88,15.09 26.7,0 38.77,4.53 57.17,5.04l6.82 0c18.89,-0.51 34.76,-5.04 62.16,-5.04l197.09 4.79 3.19 0.25 29.4 0c20.51,-1.43 37.71,-5.27 62.88,-5.16 121.09,0.49 296.94,-17.85 366.41,-123.07 58.84,-89.13 -13.43,-208.78 -53.37,-285.61 -15.26,-29.38 -32.2,-52.72 -51.95,-79.25l-62.93 -73.31c-46.88,-45.81 -123.26,-140.5 -174.07,-188.78l-41.88 -44.38c-0.67,-0.8 -1.6,-1.96 -2.27,-2.77 -31.76,-38.06 -71.14,-70.8 -104.77,-107.16l-323.68 -337.36c-89.89,-97.7 -142.38,-161.39 -64.54,-295.08 93.41,-160.41 297.72,-434.14 418.68,-596.22 99.89,-133.85 194.85,-274.19 291.31,-410.1 42.43,-59.79 87.17,-128.54 115.34,-197.52 49.39,-120.91 159.05,-326.19 -36.63,-380.79 -121.34,-33.85 -551.29,-12.1 -694.36,-12.1 -130.59,0 -357.85,-10.84 -458.31,16.02 -14.02,3.74 -26.03,7.67 -39.17,16.34 -40,26.36 -55.77,60.89 -79.98,101.67l-234.96 481.59c-26.69,53.38 -53.48,104.23 -80.67,156.49l-53.96 97.71c-5.66,9.84 -6.57,10.51 -11.42,18.54 -52.37,86.81 -105.12,171.54 -166.76,252.11l-135.07 162.64c-10.31,11.7 -19.88,18.42 -30.01,30.54 -54.12,64.72 -134.03,152.94 -212.32,73.1 -20.66,-21.07 -22.01,-27.53 -34.8,-56.03 -16.97,-37.79 -28.07,-97.84 -34.93,-146.74 -16.34,-116.45 8.07,-893.39 8.07,-1062.69 0,-154.24 -96.16,-228.61 -229.21,-255.22 -71.41,-14.28 -137.54,-20.13 -214,-28.21 -239.72,-25.34 -511.45,-12.49 -742.68,26.03 -76.96,12.82 -115.28,31.28 -170.55,66.61 -25.34,16.19 -43.08,32 -67.59,48.48 -19.28,12.95 -54.48,37.74 -54.48,66.62z"/>
 </g>
</svg>
